#tb 0: 1/44100
#media_type 0: audio
#codec_id 0: pcm_s16le
#sample_rate 0: 44100
#channel_layout_name 0: 5 channels
0,          0,          0,     1024,    10240, 0xfc3c0f05
0,       1024,       1024,     1024,    10240, 0xc6c9d04b
0,       2048,       2048,     1024,    10240, 0x1628c409
0,       3072,       3072,     1024,    10240, 0x5ef50e5b
0,       4096,       4096,     1024,    10240, 0xc4a0ff1a
0,       5120,       5120,     1024,    10240, 0xb116da08
0,       6144,       6144,     1024,    10240, 0x9b2cdf3d
0,       7168,       7168,     1024,    10240, 0xf3cfe299
0,       8192,       8192,     1024,    10240, 0x85dcbfc2
0,       9216,       9216,     1024,    10240, 0xc748f5cf
0,      10240,      10240,     1024,    10240, 0x7063ef46
0,      11264,      11264,     1024,    10240, 0xa219da16
0,      12288,      12288,     1024,    10240, 0xbf77e2ae
0,      13312,      13312,     1024,    10240, 0xa71bd705
0,      14336,      14336,     1024,    10240, 0x6878e3d6
0,      15360,      15360,     1024,    10240, 0xb8f419a3
0,      16384,      16384,     1024,    10240, 0xd7ccd236
0,      17408,      17408,     1024,    10240, 0x48ee24ec
0,      18432,      18432,     1024,    10240, 0xe9e8e37e
0,      19456,      19456,     1024,    10240, 0x949f00ae
